<svg id="Layer_1" data-name="Layer 1" xmlns="http://www.w3.org/2000/svg" xmlns:xlink="http://www.w3.org/1999/xlink" viewBox="0 0 1000 1000"><defs><style>.cls-1{fill:url(#linear-gradient);}.cls-2{fill:url(#linear-gradient-2);}</style><linearGradient id="linear-gradient" x1="138.17" y1="460.15" x2="828.59" y2="460.15" gradientUnits="userSpaceOnUse"><stop offset="0" stop-color="#0a89e8"/><stop offset="1" stop-color="#26c8ed"/></linearGradient><linearGradient id="linear-gradient-2" x1="138.17" y1="500" x2="828.59" y2="500" xlink:href="#linear-gradient"/></defs><path class="cls-1" d="M510.35,136.85c-44.21,87.27-88.06,182.27-129.73,284.92q-29.22,72-54,141.05a23.62,23.62,0,0,0,25.78,31.36l354.82-54.27A1574,1574,0,0,1,477.92,674.27a1576.77,1576.77,0,0,1-302.16,108c-30.91,7.61-58.24-21.51-48.55-51.83.3-.95.61-1.9.92-2.86,22.81-70.35,51.32-118.93,97.29-192.27,65.76-104.91,98.64-157.37,145.94-222.38C407,263.93,453.21,203.67,510.35,136.85Z"/><path class="cls-2" d="M152.71,864.6,711.29,630.78a40.92,40.92,0,0,0,21.38-54.84L528.1,135.4c73.81,92.4,164,224.41,238.47,356.25,40.69,72,75.36,141.54,105,207.35a36.37,36.37,0,0,1-25.1,50.43c-152.83,34.72-315.53,65.38-487.56,89.69Q253.75,854,152.71,864.6Z"/></svg>